<svg id="svg" xmlns="http://www.w3.org/2000/svg" xmlns:xlink="http://www.w3.org/1999/xlink" width="400" height="400" viewBox="0, 0, 400,400" version="1.1"><g id="svgg"><path id="path0" d="M305.793 115.621 C 305.699 115.864,305.665 119.260,305.717 123.166 L 305.811 130.269 312.878 130.363 C 317.799 130.428,320.091 130.336,320.424 130.060 C 321.069 129.525,321.126 116.235,320.486 115.594 C 319.871 114.979,306.029 115.005,305.793 115.621 M327.216 118.716 C 326.741 119.192,326.640 124.797,327.094 125.512 C 327.301 125.839,328.299 125.932,330.818 125.859 L 334.258 125.759 334.359 122.515 C 334.423 120.421,334.316 119.099,334.056 118.786 C 333.534 118.156,327.834 118.099,327.216 118.716 M178.317 129.951 C 177.840 130.036,175.967 130.357,174.154 130.663 C 149.764 134.785,129.306 162.923,137.614 180.919 C 138.985 183.889,138.409 185.950,136.207 185.950 C 133.483 185.950,130.800 179.288,130.792 172.502 L 130.789 170.330 129.315 170.525 C 119.319 171.850,111.669 175.486,105.252 181.961 C 83.315 204.097,94.265 241.040,124.901 248.251 C 127.103 248.769,129.687 248.881,142.064 248.990 L 156.635 249.120 157.450 245.722 C 158.537 241.188,161.855 232.174,165.002 225.203 C 171.180 211.523,170.630 208.856,159.757 199.755 C 153.538 194.548,151.605 191.908,151.605 188.619 C 151.605 184.841,153.564 184.694,158.219 188.120 C 166.125 193.939,176.945 196.578,183.695 194.335 C 188.923 192.597,194.427 189.488,198.775 185.817 C 205.861 179.832,206.930 179.804,213.703 185.425 C 227.643 196.992,240.934 198.105,253.773 188.779 C 258.589 185.280,260.346 184.853,261.222 186.966 C 262.387 189.780,260.420 193.515,255.575 197.688 C 244.868 206.910,244.576 207.286,244.307 212.153 C 244.104 215.832,244.671 217.932,247.648 224.519 C 250.418 230.651,254.177 240.642,255.326 244.926 C 255.761 246.548,256.170 248.070,256.235 248.309 C 256.383 248.853,283.316 248.918,287.077 248.383 C 316.377 244.218,329.367 210.308,310.163 188.121 C 299.425 175.716,280.516 171.902,269.511 179.921 C 267.057 181.710,264.701 181.108,264.701 178.692 C 264.701 176.816,269.110 173.615,273.930 171.992 L 276.332 171.183 275.634 169.971 C 267.546 155.934,249.565 148.729,234.587 153.523 C 230.795 154.736,230.938 154.564,231.555 157.182 C 232.343 160.528,232.269 164.262,231.396 165.134 C 229.788 166.743,227.235 165.521,227.231 163.140 C 227.209 152.389,214.019 137.922,199.480 132.702 C 193.370 130.509,182.848 129.141,178.317 129.951 M328.274 134.141 C 327.682 134.380,327.667 141.231,328.257 141.821 C 328.759 142.324,334.699 142.387,335.473 141.898 C 336.139 141.477,336.429 135.745,335.840 134.644 C 335.458 133.929,329.741 133.549,328.274 134.141 M276.727 138.306 C 276.281 138.752,276.460 164.266,276.912 164.718 C 277.510 165.315,302.542 165.315,303.140 164.718 C 303.580 164.277,303.774 139.740,303.345 138.623 C 303.126 138.051,277.290 137.743,276.727 138.306 M312.727 140.957 C 312.631 141.206,312.597 143.275,312.651 145.554 L 312.749 149.696 317.037 149.794 C 319.902 149.859,321.485 149.759,321.807 149.491 C 322.443 148.964,322.500 141.546,321.873 140.919 C 321.261 140.307,312.963 140.341,312.727 140.957 M314.918 156.828 C 314.149 157.286,313.968 178.877,314.727 179.636 C 315.539 180.448,337.100 180.207,337.542 179.381 C 338.004 178.518,338.022 157.884,337.562 157.155 C 337.153 156.509,315.969 156.203,314.918 156.828 M180.833 174.352 C 186.411 176.253,188.319 183.982,184.306 188.424 C 178.793 194.526,168.945 190.823,168.962 182.654 C 168.974 176.369,174.798 172.296,180.833 174.352 M238.422 174.352 C 244.000 176.253,245.908 183.982,241.895 188.424 C 236.382 194.526,226.534 190.823,226.550 182.654 C 226.563 176.369,232.387 172.296,238.422 174.352 M205.444 188.232 C 203.665 191.731,200.908 195.347,197.319 198.889 C 192.975 203.176,192.389 204.353,192.445 208.673 C 192.489 212.007,195.663 228.621,197.778 236.587 C 198.969 241.071,198.795 241.727,196.538 241.261 C 193.126 240.556,191.667 239.008,183.886 227.838 C 182.131 225.318,181.438 224.564,181.175 224.889 C 180.981 225.129,178.372 229.228,175.378 233.998 C 172.383 238.768,168.850 244.116,167.526 245.882 L 165.119 249.093 206.150 248.869 C 228.717 248.747,247.215 248.621,247.256 248.591 C 247.297 248.561,246.346 247.216,245.143 245.604 C 243.940 243.991,240.566 238.846,237.645 234.172 C 234.724 229.497,232.143 225.393,231.910 225.052 C 231.535 224.503,230.892 225.261,226.385 231.573 C 221.111 238.957,219.674 240.437,217.102 241.129 C 214.143 241.926,213.925 241.239,215.388 235.733 C 215.794 234.206,216.974 228.880,218.011 223.896 C 221.837 205.511,221.795 205.144,215.115 198.246 C 211.092 194.091,209.716 192.284,207.758 188.579 L 206.488 186.177 205.444 188.232 M39.896 287.077 L 39.896 308.760 44.059 308.760 L 48.222 308.760 48.222 287.077 L 48.222 265.395 44.059 265.395 L 39.896 265.395 39.896 287.077 M68.343 287.251 L 68.343 309.107 72.330 309.107 L 76.316 309.107 76.406 293.297 L 76.496 277.486 83.286 286.792 C 88.736 294.261,90.249 296.118,90.952 296.202 C 91.732 296.295,92.593 295.286,98.733 287.088 L 105.637 277.870 105.728 293.488 L 105.818 309.107 109.978 309.107 L 114.137 309.107 114.137 287.251 L 114.137 265.395 109.517 265.395 L 104.896 265.395 98.155 274.745 C 94.447 279.887,91.336 284.094,91.240 284.093 C 91.145 284.092,88.036 279.884,84.333 274.743 L 77.598 265.395 72.971 265.395 L 68.343 265.395 68.343 287.251 M148.704 266.522 C 148.439 267.142,144.438 276.080,139.813 286.383 C 135.189 296.687,131.041 305.937,130.596 306.938 L 129.787 308.760 134.226 308.760 L 138.664 308.760 140.390 304.857 L 142.115 300.954 153.571 300.863 L 165.026 300.771 166.753 304.679 L 168.480 308.586 172.911 308.684 C 175.761 308.746,177.299 308.657,177.222 308.433 C 177.157 308.242,172.810 298.482,167.563 286.745 L 158.023 265.405 153.604 265.400 L 149.185 265.395 148.704 266.522 M194.276 287.077 L 194.276 308.760 198.262 308.760 L 202.247 308.760 202.338 294.248 L 202.428 279.736 213.703 294.230 L 224.978 308.724 227.667 308.742 L 230.356 308.760 230.356 287.077 L 230.356 265.395 226.197 265.395 L 222.038 265.395 221.947 278.779 L 221.856 292.163 211.288 278.779 L 200.719 265.395 197.497 265.395 L 194.276 265.395 194.276 287.077 M250.130 287.077 L 250.130 308.760 254.120 308.760 L 258.109 308.760 258.109 287.077 L 258.109 265.395 254.120 265.395 L 250.130 265.395 250.130 287.077 M277.537 269.211 L 277.537 273.027 284.475 273.027 L 291.414 273.027 291.414 290.893 L 291.414 308.760 295.577 308.760 L 299.740 308.760 299.740 290.893 L 299.740 273.027 306.505 273.027 L 313.270 273.027 313.270 269.211 L 313.270 265.395 295.403 265.395 L 277.537 265.395 277.537 269.211 M330.616 265.572 C 330.616 265.669,334.363 271.366,338.942 278.231 L 347.268 290.713 347.268 299.736 L 347.268 308.760 351.431 308.760 L 355.594 308.760 355.594 299.928 L 355.594 291.097 364.122 278.720 C 368.813 271.913,372.732 266.130,372.832 265.869 C 372.981 265.481,372.104 265.395,368.034 265.395 L 363.053 265.396 362.024 267.043 C 361.458 267.949,358.859 272.010,356.248 276.068 L 351.501 283.446 346.002 274.429 L 340.503 265.412 335.559 265.403 C 332.840 265.398,330.616 265.474,330.616 265.572 M157.729 284.054 L 161.632 292.975 153.792 293.068 C 149.480 293.120,145.878 293.089,145.789 292.999 C 145.700 292.910,147.399 288.781,149.565 283.823 C 151.730 278.865,153.575 274.882,153.664 274.971 C 153.753 275.060,155.582 279.147,157.729 284.054 " stroke="none" fill="#fafafa" fill-rule="evenodd"></path><path id="path1" d="M0.000 200.000 L 0.000 400.000 200.000 400.000 L 400.000 400.000 400.000 200.000 L 400.000 0.000 200.000 0.000 L 0.000 0.000 0.000 200.000 M320.486 115.594 C 321.126 116.235,321.069 129.525,320.424 130.060 C 320.091 130.336,317.799 130.428,312.878 130.363 L 305.811 130.269 305.717 123.166 C 305.665 119.260,305.699 115.864,305.793 115.621 C 306.029 115.005,319.871 114.979,320.486 115.594 M334.056 118.786 C 334.316 119.099,334.423 120.421,334.359 122.515 L 334.258 125.759 330.818 125.859 C 328.299 125.932,327.301 125.839,327.094 125.512 C 326.640 124.797,326.741 119.192,327.216 118.716 C 327.834 118.099,333.534 118.156,334.056 118.786 M193.235 130.912 C 211.110 135.114,227.205 150.372,227.231 163.140 C 227.234 164.745,228.214 165.828,229.662 165.828 C 232.073 165.828,232.805 162.485,231.555 157.182 C 230.938 154.564,230.795 154.736,234.587 153.523 C 249.565 148.729,267.546 155.934,275.634 169.971 L 276.332 171.183 273.930 171.992 C 269.110 173.615,264.701 176.816,264.701 178.692 C 264.701 181.108,267.057 181.710,269.511 179.921 C 280.516 171.902,299.425 175.716,310.163 188.121 C 329.367 210.308,316.377 244.218,287.077 248.383 C 283.316 248.918,256.383 248.853,256.235 248.309 C 256.170 248.070,255.761 246.548,255.326 244.926 C 254.177 240.642,250.418 230.651,247.648 224.519 C 244.671 217.932,244.104 215.832,244.307 212.153 C 244.576 207.286,244.868 206.910,255.575 197.688 C 260.420 193.515,262.387 189.780,261.222 186.966 C 260.346 184.853,258.589 185.280,253.773 188.779 C 240.934 198.105,227.643 196.992,213.703 185.425 C 206.930 179.804,205.861 179.832,198.775 185.817 C 194.427 189.488,188.923 192.597,183.695 194.335 C 176.945 196.578,166.125 193.939,158.219 188.120 C 153.564 184.694,151.605 184.841,151.605 188.619 C 151.605 191.908,153.538 194.548,159.757 199.755 C 170.630 208.856,171.180 211.523,165.002 225.203 C 161.855 232.174,158.537 241.188,157.450 245.722 L 156.635 249.120 142.064 248.990 C 124.688 248.836,123.405 248.644,116.015 245.093 C 80.291 227.925,89.589 175.790,129.315 170.525 L 130.789 170.330 130.792 172.502 C 130.800 179.288,133.483 185.950,136.207 185.950 C 138.409 185.950,138.985 183.889,137.614 180.919 C 135.199 175.689,135.185 170.021,137.568 162.817 C 143.094 146.112,157.463 133.484,174.154 130.663 C 175.967 130.357,177.840 130.036,178.317 129.951 C 180.790 129.509,189.711 130.083,193.235 130.912 M335.840 134.644 C 336.429 135.745,336.139 141.477,335.473 141.898 C 334.699 142.387,328.759 142.324,328.257 141.821 C 327.667 141.231,327.682 134.380,328.274 134.141 C 329.741 133.549,335.458 133.929,335.840 134.644 M303.345 138.623 C 303.774 139.740,303.580 164.277,303.140 164.718 C 302.542 165.315,277.510 165.315,276.912 164.718 C 276.460 164.266,276.281 138.752,276.727 138.306 C 277.290 137.743,303.126 138.051,303.345 138.623 M321.873 140.919 C 322.500 141.546,322.443 148.964,321.807 149.491 C 321.485 149.759,319.902 149.859,317.037 149.794 L 312.749 149.696 312.651 145.554 C 312.597 143.275,312.631 141.206,312.727 140.957 C 312.963 140.341,321.261 140.307,321.873 140.919 M337.562 157.155 C 338.022 157.884,338.004 178.518,337.542 179.381 C 337.100 180.207,315.539 180.448,314.727 179.636 C 313.968 178.877,314.149 157.286,314.918 156.828 C 315.969 156.203,337.153 156.509,337.562 157.155 M173.981 174.634 C 170.751 176.161,168.969 179.008,168.962 182.654 C 168.945 190.823,178.793 194.526,184.306 188.424 C 190.592 181.466,182.472 170.620,173.981 174.634 M231.570 174.634 C 228.340 176.161,226.558 179.008,226.550 182.654 C 226.534 190.823,236.382 194.526,241.895 188.424 C 248.181 181.466,240.061 170.620,231.570 174.634 M210.214 192.695 C 210.866 193.638,213.072 196.136,215.115 198.246 C 221.795 205.144,221.837 205.511,218.011 223.896 C 216.974 228.880,215.794 234.206,215.388 235.733 C 213.925 241.239,214.143 241.926,217.102 241.129 C 219.674 240.437,221.111 238.957,226.385 231.573 C 230.892 225.261,231.535 224.503,231.910 225.052 C 232.143 225.393,234.724 229.497,237.645 234.172 C 240.566 238.846,243.940 243.991,245.143 245.604 C 246.346 247.216,247.297 248.561,247.256 248.591 C 247.215 248.621,228.717 248.747,206.150 248.869 L 165.119 249.093 167.526 245.882 C 168.850 244.116,172.383 238.768,175.378 233.998 C 178.372 229.228,180.981 225.129,181.175 224.889 C 181.438 224.564,182.131 225.318,183.886 227.838 C 191.667 239.008,193.126 240.556,196.538 241.261 C 198.795 241.727,198.969 241.071,197.778 236.587 C 195.663 228.621,192.489 212.007,192.445 208.673 C 192.389 204.353,192.975 203.176,197.319 198.889 C 200.908 195.347,203.665 191.731,205.444 188.232 L 206.488 186.177 207.758 188.579 C 208.456 189.899,209.561 191.752,210.214 192.695 M48.222 287.077 L 48.222 308.760 44.059 308.760 L 39.896 308.760 39.896 287.077 L 39.896 265.395 44.059 265.395 L 48.222 265.395 48.222 287.077 M84.333 274.743 C 88.036 279.884,91.145 284.092,91.240 284.093 C 91.336 284.094,94.447 279.887,98.155 274.745 L 104.896 265.395 109.517 265.395 L 114.137 265.395 114.137 287.251 L 114.137 309.107 109.978 309.107 L 105.818 309.107 105.728 293.488 L 105.637 277.870 98.733 287.088 C 92.593 295.286,91.732 296.295,90.952 296.202 C 90.249 296.118,88.736 294.261,83.286 286.792 L 76.496 277.486 76.406 293.297 L 76.316 309.107 72.330 309.107 L 68.343 309.107 68.343 287.251 L 68.343 265.395 72.971 265.395 L 77.598 265.395 84.333 274.743 M167.563 286.745 C 172.810 298.482,177.157 308.242,177.222 308.433 C 177.299 308.657,175.761 308.746,172.911 308.684 L 168.480 308.586 166.753 304.679 L 165.026 300.771 153.571 300.863 L 142.115 300.954 140.390 304.857 L 138.664 308.760 134.226 308.760 L 129.787 308.760 130.596 306.938 C 131.041 305.937,135.189 296.687,139.813 286.383 C 144.438 276.080,148.439 267.142,148.704 266.522 L 149.185 265.395 153.604 265.400 L 158.023 265.405 167.563 286.745 M211.288 278.779 L 221.856 292.163 221.947 278.779 L 222.038 265.395 226.197 265.395 L 230.356 265.395 230.356 287.077 L 230.356 308.760 227.667 308.742 L 224.978 308.724 213.703 294.230 L 202.428 279.736 202.338 294.248 L 202.247 308.760 198.262 308.760 L 194.276 308.760 194.276 287.077 L 194.276 265.395 197.497 265.395 L 200.719 265.395 211.288 278.779 M258.109 287.077 L 258.109 308.760 254.120 308.760 L 250.130 308.760 250.130 287.077 L 250.130 265.395 254.120 265.395 L 258.109 265.395 258.109 287.077 M313.270 269.211 L 313.270 273.027 306.505 273.027 L 299.740 273.027 299.740 290.893 L 299.740 308.760 295.577 308.760 L 291.414 308.760 291.414 290.893 L 291.414 273.027 284.475 273.027 L 277.537 273.027 277.537 269.211 L 277.537 265.395 295.403 265.395 L 313.270 265.395 313.270 269.211 M346.002 274.429 L 351.501 283.446 356.248 276.068 C 358.859 272.010,361.458 267.949,362.024 267.043 L 363.053 265.396 368.034 265.395 C 372.104 265.395,372.981 265.481,372.832 265.869 C 372.732 266.130,368.813 271.913,364.122 278.720 L 355.594 291.097 355.594 299.928 L 355.594 308.760 351.431 308.760 L 347.268 308.760 347.268 299.736 L 347.268 290.713 338.942 278.231 C 334.363 271.366,330.616 265.669,330.616 265.572 C 330.616 265.474,332.840 265.398,335.559 265.403 L 340.503 265.412 346.002 274.429 M149.565 283.823 C 147.399 288.781,145.700 292.910,145.789 292.999 C 145.878 293.089,149.480 293.120,153.792 293.068 L 161.632 292.975 157.729 284.054 C 155.582 279.147,153.753 275.060,153.664 274.971 C 153.575 274.882,151.730 278.865,149.565 283.823 " stroke="none" fill="#040404" fill-rule="evenodd"></path></g></svg>